<?xml version="1.0" standalone="no"?>
<!DOCTYPE svg PUBLIC "-//W3C//DTD SVG 20010904//EN"
 "http://www.w3.org/TR/2001/REC-SVG-20010904/DTD/svg10.dtd">
<svg version="1.0" xmlns="http://www.w3.org/2000/svg"
 width="500.000000pt" height="500.000000pt" viewBox="0 0 500.000000 500.000000"
 preserveAspectRatio="xMidYMid meet">
<metadata>
Created by potrace 1.11, written by Peter Selinger 2001-2013
</metadata>
<g transform="translate(0.000000,500.000000) scale(0.100000,-0.100000)"
fill="#000000" stroke="none">
<path d="M2697 4880 c-75 -13 -137 -48 -203 -117 -108 -110 -147 -213 -248
-657 -24 -103 -55 -163 -131 -246 -37 -41 -155 -185 -263 -319 -107 -134 -227
-278 -267 -320 l-73 -76 -424 -5 -423 -5 -67 -33 c-82 -40 -149 -111 -178
-188 -20 -55 -20 -66 -18 -1017 l3 -962 28 -53 c35 -67 92 -124 159 -159 l53
-28 470 -5 470 -6 100 -32 c55 -18 199 -66 320 -107 257 -86 474 -146 635
-176 100 -19 163 -22 485 -26 339 -4 378 -3 465 15 180 37 292 96 416 217 131
129 193 266 215 475 10 96 17 121 39 155 88 130 122 244 126 426 3 122 6 143
29 195 47 106 67 199 68 319 0 61 -5 129 -10 152 -10 39 -8 47 32 125 61 116
88 227 88 358 0 127 -18 204 -75 320 -56 116 -186 247 -303 307 -138 71 -163
75 -496 80 l-296 5 28 66 c80 192 109 377 91 586 -15 165 -40 267 -91 371 -70
142 -175 238 -334 303 -119 50 -317 79 -420 62z m176 -360 c188 -27 272 -123
307 -350 31 -199 2 -321 -160 -690 -45 -101 -90 -260 -90 -316 l0 -33 523 -3
522 -3 56 -28 c67 -33 152 -119 182 -184 30 -67 29 -176 -1 -264 -41 -120 -94
-188 -165 -212 -5 -1 0 -19 12 -38 44 -75 64 -150 65 -249 0 -87 -2 -101 -31
-163 -18 -37 -48 -87 -68 -111 l-36 -44 21 -61 c40 -120 18 -270 -55 -378 -19
-28 -48 -60 -65 -70 l-31 -18 7 -96 c15 -221 -50 -370 -194 -447 -111 -59
-163 -66 -497 -66 -264 0 -315 3 -430 22 -194 33 -408 92 -720 198 -314 106
-386 124 -497 124 l-78 0 0 869 0 868 73 5 c92 6 149 35 259 134 99 88 161
159 348 399 82 105 191 238 242 297 151 173 183 240 252 543 50 216 74 289
107 335 32 44 36 45 142 30z m-1862 -3163 c52 -35 79 -82 79 -139 0 -58 -17
-94 -63 -135 -114 -100 -300 12 -271 163 20 108 165 172 255 111z"/>
</g>
</svg>
